<svg width="28" height="28" viewBox="0 0 28 28" fill="none" xmlns="http://www.w3.org/2000/svg">
<path fill-rule="evenodd" clip-rule="evenodd" d="M9.07812 6.83398C6.63489 6.83398 4.5 9.00326 4.5 11.8493C4.5 13.5847 4.76399 14.7798 5.64955 16.066C6.58248 17.421 8.23959 18.9286 11.2069 21.1523L14 23.25L16.7931 21.1523C19.7604 18.9286 21.4175 17.421 22.3504 16.066C23.236 14.7798 23.5 13.5847 23.5 11.8493C23.5 9.00326 21.3651 6.83399 18.9219 6.83399C17.4154 6.83399 16.048 7.55375 14.8033 9.23275C14.6147 9.48718 14.3167 9.63722 14 9.63722C13.6833 9.63722 13.3853 9.48718 13.1967 9.23275C11.952 7.55374 10.5846 6.83398 9.07812 6.83398ZM2.5 11.8493C2.5 8.03757 5.39636 4.83398 9.07812 4.83398C10.9788 4.83398 12.6225 5.62885 14 7.0808C15.3775 5.62885 17.0212 4.83399 18.9219 4.83399C22.6036 4.83399 25.5 8.03758 25.5 11.8493C25.5 13.8514 25.1807 15.4821 23.9978 17.2002C22.8622 18.8494 20.9658 20.5246 17.9925 22.7528L14.6005 25.3003C14.2448 25.5674 13.7552 25.5674 13.3995 25.3003L10.0075 22.7528C10.0073 22.7527 10.0076 22.7529 10.0075 22.7528C7.03446 20.5247 5.13772 18.8493 4.00224 17.2001C2.81934 15.4821 2.5 13.8514 2.5 11.8493Z" fill="#FF3131"/>
</svg>
