<svg width="171" height="48" viewBox="0 0 171 48" fill="none" xmlns="http://www.w3.org/2000/svg">
<g clip-path="url(#clip0_793_2158)">
<path d="M165.587 15.2474V7.68164H160.065V15.2854H159.02V20.3134H160.065V37.1464H165.587V20.3134H170.102V15.2854L165.587 15.2474Z" fill="#0D0D0D"/>
<path d="M138.397 32.2752C139.481 30.4693 140.013 28.3688 140.013 26.0021C140.013 23.1411 139.224 20.6699 137.637 18.6549V15.1191H143.245V26.81C143.245 28.4258 143.644 29.6234 144.433 30.4123C145.222 31.1727 146.181 31.5528 147.303 31.5528C148.615 31.5528 149.708 31.1536 150.592 30.3648C151.476 29.5473 151.913 28.2832 151.913 26.5819V15.1191H157.483V36.9801H151.913V33.5108C151.333 34.6039 150.487 35.4593 149.356 36.0676C148.263 36.6759 147.151 36.9801 146.029 36.9801C143.444 36.9801 141.391 36.1912 139.87 34.6039C139.253 33.948 138.758 33.1687 138.397 32.2752Z" fill="#0D0D0D"/>
<path d="M106.086 33.948V36.9801H111.656V29.4523C111.656 23.4263 113.433 20.4228 116.997 20.4228C118.271 20.4228 119.355 20.6224 120.239 21.0121L121.198 15.9936C120.229 15.4803 119.05 15.2142 117.682 15.2142C116.313 15.2142 115.172 15.6704 114.079 16.5829C112.986 17.4953 112.178 18.864 111.665 20.6889V15.1191H106.095V18.75C107.692 20.8315 108.472 23.3693 108.472 26.3062C108.472 29.2432 107.692 31.857 106.095 33.9576L106.086 33.948Z" fill="#0D0D0D"/>
<path d="M121.962 10.7988C121.905 10.8463 121.819 10.7988 121.829 10.7323L123.093 0.999426C123.093 0.932893 123.188 0.904379 123.235 0.961407L129.233 8.56521C129.28 8.62223 129.233 8.69827 129.166 8.68877L125.041 8.23254C125.041 8.23254 125.003 8.23254 124.984 8.25155L121.962 10.8083V10.7988Z" fill="#3328BF"/>
<path fill-rule="evenodd" clip-rule="evenodd" d="M122.332 0.704781C122.427 0.00142946 123.321 -0.255199 123.768 0.305581L129.993 8.20403C130.44 8.76481 129.984 9.58221 129.271 9.50618L125.421 9.07846C125.326 9.06896 125.231 9.09747 125.155 9.16401L122.332 11.5497C121.772 12.0249 120.916 11.5592 121.011 10.8273M121.905 10.7608L123.178 0.989923L129.195 8.62224L125.516 8.21353C124.995 7.89668 124.842 8.28006 124.585 8.49867L121.905 10.7703V10.7608ZM121.011 10.8273L122.332 0.704781Z" fill="#3328BF"/>
<path d="M133.834 10.9328H136.211V11.8833H133.834V14.2595H132.884V11.8833H130.508V10.9328H132.884V8.55664H133.834V10.9328Z" fill="#3328BF"/>
<path fill-rule="evenodd" clip-rule="evenodd" d="M85.1484 34.5849V46.6844H90.6232V33.7675C91.1649 34.7845 92.0299 35.5734 93.2275 36.1341C94.4536 36.7044 95.7747 36.9801 97.1814 36.9801C100.023 36.9801 102.438 35.9821 104.415 33.9861C106.42 31.9616 107.428 29.3192 107.428 26.0781C107.428 22.837 106.42 20.2802 104.415 18.2557C102.409 16.2312 99.9949 15.2142 97.1814 15.2142C95.7747 15.2142 94.4536 15.5088 93.2275 16.1076C92.0299 16.6779 91.1649 17.4668 90.6232 18.4743V15.1191H85.1484V20.2802C85.6617 20.6984 86.1084 21.1547 86.4981 21.6489C87.9238 23.4928 88.5606 25.5744 88.3991 27.8555C88.2755 30.6024 87.1825 32.8645 85.1579 34.5754L85.1484 34.5849ZM92.334 30.2792C91.26 29.2622 90.7182 27.8935 90.7182 26.1637C90.7182 24.4338 91.26 23.0936 92.334 22.0481C93.4081 20.9741 94.7292 20.4418 96.288 20.4418C97.8468 20.4418 99.1204 20.9741 100.194 22.0481C101.268 23.1221 101.81 24.4908 101.81 26.1637C101.81 27.8365 101.268 29.1862 100.194 30.2317C99.1489 31.2772 97.8468 31.8 96.288 31.8C94.7292 31.8 93.4461 31.2962 92.334 30.2792Z" fill="#0D0D0D"/>
<path fill-rule="evenodd" clip-rule="evenodd" d="M118.064 21.4208C117.494 22.78 117.199 24.3007 117.199 26.0021C117.199 29.2432 118.245 31.876 120.345 33.9195C122.474 35.9631 125.069 36.9801 128.13 36.9801C131.19 36.9801 133.766 35.9631 135.867 33.9195C137.996 31.876 139.06 29.2432 139.06 26.0021C139.06 22.761 137.996 20.1376 135.867 18.1321C133.766 16.1266 131.19 15.1191 128.13 15.1191C125.82 15.1191 123.767 15.6894 121.99 16.8395L120.935 22.3713L119.842 21.877C119.347 21.6584 118.758 21.4968 118.064 21.4208ZM128.13 31.6194C126.571 31.6194 125.269 31.1061 124.214 30.0891C123.168 29.0436 122.636 27.6749 122.636 25.9926C122.636 24.3102 123.159 23.0556 124.214 22.0386C125.259 21.0216 126.571 20.5083 128.13 20.5083C129.688 20.5083 130.991 21.0216 132.046 22.0386C133.091 23.0556 133.623 24.3768 133.623 25.9926C133.623 27.6084 133.101 29.0341 132.046 30.0891C131 31.1061 129.688 31.6194 128.13 31.6194Z" fill="#3328BF"/>
<path d="M75.832 4.83008C78.7785 4.83008 81.364 5.6952 83.3125 7.43457C85.2894 9.13587 86.2783 11.4359 86.2783 14.3252H80.4424C80.4423 13.0802 80.0138 12.0922 79.168 11.3604C78.3506 10.6 77.2106 10.2198 75.7471 10.2197C74.4069 10.2197 73.2845 10.5708 72.3721 11.2646C71.4882 11.93 71.0518 12.8142 71.0518 13.9072C71.0518 15.637 72.2963 16.8444 74.7959 17.5098L78.6738 18.6504C81.9245 19.5343 84.2059 20.827 85.5176 22.5283C86.829 24.2295 87.399 26.1302 87.2471 28.2305C87.1235 30.9678 86.0021 33.1447 83.873 34.751C81.7725 36.3288 79.2154 37.127 76.2119 37.127C73.6356 37.1269 71.4278 36.5627 69.5898 35.4434C69.615 34.9436 69.6309 34.4318 69.6309 33.9082V27.4609H70.7568C70.8139 28.6775 71.3362 29.7235 72.3057 30.6074C73.2751 31.4628 74.5679 31.8808 76.1836 31.8809C77.7043 31.8809 78.9399 31.5287 79.8809 30.835C80.8218 30.1031 81.3258 29.1907 81.3828 28.0977C81.4398 27.0617 81.1068 26.1965 80.375 25.4932C79.6716 24.79 78.5693 24.2294 77.0488 23.8018L73.1709 22.7939C71.8172 22.3995 70.6378 21.913 69.6309 21.3379V13.9658H65.2461C65.2669 11.2953 66.2823 9.11831 68.3047 7.43457C70.3767 5.7048 72.8857 4.8301 75.832 4.83008Z" fill="#0D0D0D"/>
<path d="M55.8906 14.6523C57.3622 14.6523 58.7397 14.9656 60.0234 15.5918C61.3385 16.1867 62.2938 17.0165 62.8887 18.0811V15.1221H68.4775V33.9082C68.4775 38.6675 67.4134 42.2064 65.2842 44.5234C63.155 46.8404 60.1335 47.999 56.2197 47.999C53.934 47.999 51.8513 47.4193 49.9727 46.2607C48.1255 45.1023 46.7167 43.5213 45.7461 41.5176C46.1532 41.2984 46.9199 40.8907 48.0469 40.2959C49.1741 39.7323 49.9571 39.3568 50.3955 39.1689C50.8652 40.2335 51.6482 41.0944 52.7441 41.752C53.8713 42.4408 55.0299 42.7852 56.2197 42.7852C58.7871 42.7851 60.5878 41.9709 61.6211 40.3428C62.6541 38.7147 63.0765 36.617 62.8887 34.0498C62.3564 35.1142 61.433 35.9598 60.1182 36.5859C58.8031 37.2122 57.3936 37.5254 55.8906 37.5254C52.9161 37.5254 50.3334 36.4757 48.1416 34.3779C47.6951 33.9379 47.2966 33.4707 46.9424 32.9785C48.2246 30.9938 48.8584 28.661 48.8584 26.0186C48.8584 23.4166 48.2433 21.1209 46.998 19.1699C47.338 18.7042 47.7189 18.2623 48.1416 17.8457C50.3333 15.7168 52.9162 14.6524 55.8906 14.6523ZM56.7832 20.1475C55.155 20.1475 53.7611 20.7107 52.6025 21.8379C51.4441 22.9338 50.8652 24.3434 50.8652 26.0654C50.8653 27.8498 51.4288 29.3055 52.5557 30.4326C53.7142 31.5285 55.1237 32.0771 56.7832 32.0771C58.3487 32.0771 59.7262 31.5285 60.916 30.4326C62.137 29.3055 62.748 27.85 62.748 26.0654C62.748 24.2494 62.1683 22.8087 61.0098 21.7441C59.8513 20.6797 58.4426 20.1475 56.7832 20.1475Z" fill="#3328BF"/>
<path d="M36.292 14.6523C39.4857 14.6523 42.1784 15.7011 44.3701 17.7988C46.5932 19.8967 47.7051 22.6369 47.7051 26.0186C47.705 29.4 46.5931 32.1551 44.3701 34.2842C42.1783 36.4133 39.4857 37.4785 36.292 37.4785C33.3409 37.4785 30.8059 36.567 28.6836 34.749V17.3398C30.8058 15.549 33.3412 14.6524 36.292 14.6523ZM36.292 20.2881C34.6639 20.2881 33.3019 20.8203 32.2061 21.8848C31.1102 22.9494 30.5625 24.3277 30.5625 26.0186C30.5626 27.7718 31.1103 29.1962 32.2061 30.292C33.3019 31.3566 34.6638 31.8886 36.292 31.8887C37.9202 31.8887 39.282 31.3565 40.3779 30.292C41.4738 29.1962 42.0224 27.7718 42.0225 26.0186C42.0225 24.3277 41.4738 22.9494 40.3779 21.8848C39.2821 20.8204 37.92 20.2881 36.292 20.2881Z" fill="#3328BF"/>
<path d="M27.5273 37.0547H21.7969V35.0186C23.8467 32.9207 24.8739 30.3354 24.874 27.333C24.874 25.4884 24.242 23.7251 23.0645 22.0625C22.6867 21.5293 22.2629 21.0529 21.7969 20.6328V18.0557C21.8467 17.9785 21.8957 17.9002 21.9424 17.8203C22.7355 16.4847 23.1357 15.0302 23.1357 13.4775C23.1357 11.4622 22.6986 9.67772 21.7969 8.16895V3.19141H27.5273V37.0547ZM21.7969 22.3037C21.8217 22.3342 21.8456 22.3655 21.8701 22.3965C21.8458 22.3657 21.8216 22.335 21.7969 22.3047V22.3037Z" fill="#3328BF"/>
<path d="M21.9806 13.4782C21.9806 14.8246 21.6362 16.077 20.9474 17.2356C20.2898 18.3628 19.2096 19.2082 17.7066 19.7718C19.5853 20.2415 21.057 21.2278 22.1216 22.7307C23.1861 24.2337 23.7184 25.7679 23.7184 27.3335C23.7184 30.0576 22.7947 32.359 20.9474 34.2377C19.1313 36.1164 16.7047 37.0557 13.6675 37.0557H0V4.69531H12.6811C15.5305 4.69531 17.7849 5.49375 19.4444 7.09064C21.1352 8.65621 21.9806 10.7854 21.9806 13.4782ZM6.0118 17.7052H12.2584C13.323 17.7052 14.1684 17.3451 14.7947 16.625C15.4209 15.8735 15.734 14.9342 15.734 13.8069C15.734 12.6484 15.4052 11.7404 14.7477 11.0829C14.1215 10.394 13.2291 10.0496 12.0706 10.0496H6.0118V17.7052ZM13.1978 22.7307H6.0118V31.7015H13.3387C14.5911 31.7015 15.5775 31.2631 16.2976 30.3864C17.0491 29.4783 17.4248 28.4294 17.4248 27.2396C17.4248 26.081 17.0491 25.0478 16.2976 24.1397C15.5461 23.2004 14.5129 22.7307 13.1978 22.7307Z" fill="#3328BF"/>
</g>
<defs>
<clipPath id="clip0_793_2158">
<rect width="170.103" height="47.9984" fill="white"/>
</clipPath>
</defs>
</svg>
